HIERARCHY
ROOT Hips
{
 OFFSET 0.000000 0.000000 0.000000
 CHANNELS 6 Xposition Yposition Zposition Yrotation Xrotation Zrotation
 JOINT Chest
 {
  OFFSET 0.000000 9.585900 0.002600
  CHANNELS 3 Yrotation Xrotation Zrotation
  JOINT Chest2
  {
   OFFSET 0.000000 9.601200 -0.005300
   CHANNELS 3 Yrotation Xrotation Zrotation
   JOINT Chest3
   {
    OFFSET 0.000000 9.561800 0.000000
    CHANNELS 3 Yrotation Xrotation Zrotation
    JOINT Chest4
    {
     OFFSET 0.000000 9.552100 0.000000
     CHANNELS 3 Yrotation Xrotation Zrotation
     JOINT Neck
     {
      OFFSET 0.000000 14.453000 0.000000
      CHANNELS 3 Yrotation Xrotation Zrotation
      JOINT Head
      {
       OFFSET 0.000000 8.936500 -0.011300
       CHANNELS 3 Yrotation Xrotation Zrotation
       End Site
       {
        OFFSET 0.000000 17.073600 -0.006000
       }
      }
     }
     JOINT RightCollar
     {
      OFFSET -2.921100 9.558500 0.000000
      CHANNELS 3 Yrotation Xrotation Zrotation
      JOINT RightShoulder
      {
       OFFSET -13.519700 0.000000 0.000000
       CHANNELS 3 Yrotation Xrotation Zrotation
       JOINT RightElbow
       {
        OFFSET 0.000000 -29.696600 0.000000
        CHANNELS 3 Yrotation Xrotation Zrotation
        JOINT RightWrist
        {
         OFFSET 0.000000 -24.004700 0.000000
         CHANNELS 3 Yrotation Xrotation Zrotation
         End Site
         {
          OFFSET 0.000000 -17.728500 0.000000
         }
        }
       }
      }
     }
     JOINT LeftCollar
     {
      OFFSET 2.921100 9.558500 0.000000
      CHANNELS 3 Yrotation Xrotation Zrotation
      JOINT LeftShoulder
      {
       OFFSET 13.519700 0.000000 0.000000
       CHANNELS 3 Yrotation Xrotation Zrotation
       JOINT LeftElbow
       {
        OFFSET 0.000000 -29.696600 0.000000
        CHANNELS 3 Yrotation Xrotation Zrotation
        JOINT LeftWrist
        {
         OFFSET 0.000000 -24.004700 0.000000
         CHANNELS 3 Yrotation Xrotation Zrotation
         End Site
         {
          OFFSET 0.000000 -17.728500 0.000000
         }
        }
       }
      }
     }
    }
   }
  }
 }
 JOINT RightHip
 {
  OFFSET -7.771700 -0.012900 -0.001300
  CHANNELS 3 Yrotation Xrotation Zrotation
  JOINT RightKnee
  {
   OFFSET 0.000000 -40.869800 0.001200
   CHANNELS 3 Yrotation Xrotation Zrotation
   JOINT RightAnkle
   {
    OFFSET 0.000000 -39.717900 0.002100
    CHANNELS 3 Yrotation Xrotation Zrotation
    JOINT RightToe
    {
     OFFSET 0.000000 -4.965400 11.033500
     CHANNELS 3 Yrotation Xrotation Zrotation
     End Site
     {
      OFFSET 0.000000 -1.423100 5.872300
     }
    }
   }
  }
 }
 JOINT LeftHip
 {
  OFFSET 7.771700 -0.012900 -0.001300
  CHANNELS 3 Yrotation Xrotation Zrotation
  JOINT LeftKnee
  {
   OFFSET 0.000000 -40.869800 0.001200
   CHANNELS 3 Yrotation Xrotation Zrotation
   JOINT LeftAnkle
   {
    OFFSET 0.000000 -39.717900 0.002100
    CHANNELS 3 Yrotation Xrotation Zrotation
    JOINT LeftToe
    {
     OFFSET 0.000000 -4.965400 11.033500
     CHANNELS 3 Yrotation Xrotation Zrotation
     End Site
     {
      OFFSET 0.000000 -1.423100 5.872300
     }
    }
   }
  }
 }
}
MOTION
Frames: 16
Frame Time: 0.008333
-42.681930 57.866310 12.383366 176.818268 -51.234965 -3.150909 3.684361 21.821364 4.030931 1.851898 12.495496 2.086414 2.377149 15.599199 2.705978 1.839314 12.492086 2.092713 -0.389852 16.846695 2.569550 -1.647450 -4.496140 4.972328 -0.738585 3.836230 1.172078 0.194929 -13.266810 -12.809936 -33.800675 -24.479482 98.838905 -11.308892 -0.727606 -31.058579 -10.757062 2.868741 0.824827 0.825268 -17.372734 17.205543 46.204442 -70.967171 -77.703149 -2.875699 4.960993 12.533476 3.901936 -20.483098 -2.962729 -32.652624 72.684672 -36.110355 7.112157 -11.456839 11.799744 -0.023502 -0.069980 -0.026547 -7.283377 -17.680070 5.953512 86.046954 81.095403 85.658041 1.203730 -21.407361 -18.931540 0.035914 0.053805 0.003308
-42.675352 57.869346 12.384423 176.833450 -51.241032 -3.191853 3.708299 21.826041 4.060911 1.846977 12.497163 2.089895 2.396735 15.609518 2.693565 1.864663 12.518490 2.062765 -0.407088 16.853150 2.597799 -1.652030 -4.452125 4.967310 -0.757930 3.819272 1.224311 0.180661 -13.283321 -12.805410 -33.786901 -24.512221 98.822778 -11.318912 -0.736537 -31.032588 -10.808488 2.822286 0.814297 0.627144 -17.199407 17.226060 46.513635 -70.800277 -78.506316 -2.907345 5.072484 12.718544 3.870734 -20.473048 -2.943024 -32.526057 72.712090 -35.932687 7.059492 -11.486479 11.712758 0.008951 -0.041063 -0.000039 -7.298291 -17.669692 5.979141 86.041855 81.097808 85.662641 1.214181 -21.406291 -18.935969 0.027918 0.054007 0.001704
-42.672589 57.871570 12.385991 176.829466 -51.239747 -3.188496 3.729962 21.826543 4.055896 1.854364 12.503596 2.086096 2.405811 15.617728 2.689105 1.854302 12.503593 2.086018 -0.406656 16.898894 2.565078 -1.649336 -4.407653 4.962910 -0.721832 3.861430 1.201055 0.153274 -13.307679 -12.800459 -33.779264 -24.595339 98.803491 -11.305928 -0.726390 -30.982870 -10.821993 2.800497 0.744414 0.424339 -17.032477 17.244574 46.790218 -70.629397 -79.292277 -2.991951 5.194932 12.915524 3.869786 -20.470428 -2.945136 -32.482276 72.721729 -35.875970 7.041496 -11.552730 11.655282 0.006888 0.009744 0.034489 -7.289025 -17.668904 5.970023 86.022152 81.090194 85.654944 1.220445 -21.405547 -18.941430 0.017889 0.054406 0.002979
-42.668341 57.876171 12.385984 176.846150 -51.253352 -3.203300 3.749908 21.839963 4.044451 1.850587 12.510668 2.094425 2.412360 15.626272 2.683829 1.859668 12.510573 2.081665 -0.408440 16.926754 2.563664 -1.640559 -4.362048 4.957516 -0.696235 3.885478 1.209744 0.132773 -13.336174 -12.800372 -33.784671 -24.679200 98.801536 -11.307584 -0.727916 -30.946504 -10.843385 2.762327 0.714598 0.216780 -16.872323 17.257108 47.030041 -70.454766 -80.009112 -3.088935 5.281395 13.059977 3.855579 -20.447351 -2.944062 -32.417786 72.729475 -35.800188 7.021278 -11.590964 11.626987 0.012123 0.027507 0.039812 -7.283072 -17.652641 5.959729 85.988942 81.082943 85.640466 1.228564 -21.403122 -18.942219 0.008620 0.054451 -0.001569
-42.662036 57.882211 12.384977 176.881133 -51.275494 -3.239066 3.738319 21.862728 4.050937 1.868631 12.530887 2.064360 2.421403 15.648232 2.669747 1.866989 12.528032 2.070246 -0.396630 16.919956 2.601455 -1.626984 -4.315999 4.949347 -0.660461 3.868419 1.256795 0.121132 -13.358642 -12.808430 -33.815510 -24.766375 98.818597 -11.329364 -0.734555 -30.931382 -10.852501 2.702198 0.765021 0.010041 -16.726584 17.231768 47.264124 -70.286180 -80.656984 -3.189782 5.322616 13.107822 3.834159 -20.416366 -2.945031 -32.224832 72.779370 -35.572359 6.943156 -11.621687 11.581028 0.035779 0.028397 0.041818 -7.299496 -17.630065 5.963283 85.984860 81.081451 85.644781 1.233236 -21.394029 -18.940534 -0.001726 0.048470 -0.005893
-42.656878 57.886401 12.385034 176.891242 -51.283381 -3.245066 3.734261 21.872695 4.044369 1.873502 12.543887 2.053275 2.423237 15.657995 2.662459 1.868574 12.535836 2.064326 -0.388614 16.945424 2.596815 -1.609425 -4.269176 4.937155 -0.584723 3.895972 1.249059 0.109688 -13.368510 -12.837020 -33.914108 -24.813972 98.886786 -11.317211 -0.732483 -30.924258 -10.853544 2.662905 0.768807 -0.192023 -16.583428 17.202977 47.478374 -70.148553 -81.242071 -3.305900 5.355770 13.053973 3.830682 -20.400555 -2.949024 -32.158351 72.793744 -35.495378 6.929999 -11.674868 11.560772 0.022317 0.060656 0.045125 -7.301686 -17.624752 5.961284 85.998506 81.082054 85.660749 1.232569 -21.384760 -18.934959 -0.007310 0.040174 -0.009786
-42.651940 57.890789 12.384447 176.915678 -51.291232 -3.258317 3.725815 21.888256 4.030366 1.872702 12.553565 2.048172 2.422680 15.666967 2.655369 1.868237 12.542994 2.058666 -0.378978 16.971570 2.589822 -1.588065 -4.221282 4.920104 -0.538111 3.890205 1.258764 0.080479 -13.390482 -12.827047 -33.919244 -24.937418 98.882821 -11.379990 -0.753413 -30.890954 -10.878527 2.602439 0.693820 -0.377036 -16.422991 17.244358 47.636315 -70.054980 -81.755165 -3.453119 5.389459 12.910731 3.812411 -20.383281 -2.954634 -32.087338 72.810599 -35.417864 6.897893 -11.727503 11.539673 0.021885 0.092038 0.049632 -7.313629 -17.617743 5.956129 86.015833 81.082407 85.676985 1.235116 -21.379348 -18.933295 -0.012775 0.035208 -0.010691
-42.646771 57.894567 12.383798 176.933709 -51.293472 -3.266801 3.720869 21.900648 4.017829 1.869504 12.561074 2.040809 2.423213 15.669218 2.654479 1.864683 12.555096 2.048696 -0.368872 16.999153 2.580375 -1.564978 -4.170945 4.898314 -0.498526 3.885148 1.264596 0.096654 -13.397144 -12.852072 -33.972158 -25.047665 98.901105 -11.436034 -0.790587 -30.834846 -10.896593 2.556627 0.648351 -0.546671 -16.274811 17.242329 47.773668 -70.011082 -82.238985 -3.630875 5.419092 12.691484 3.794099 -20.375535 -2.961626 -32.014273 72.836521 -35.340912 6.870429 -11.784597 11.520804 0.030452 0.082678 0.040940 -7.322969 -17.616610 5.952782 86.027256 81.083872 85.688476 1.238838 -21.372097 -18.933236 -0.018548 0.029253 -0.012378
-42.642605 57.897948 12.382740 176.980106 -51.290390 -3.291113 3.696090 21.920448 3.982938 1.866929 12.554535 2.049526 2.428132 15.660049 2.664705 1.854904 12.576240 2.030978 -0.359714 17.029313 2.567701 -1.542448 -4.115827 4.870822 -0.457240 3.894338 1.260509 0.156127 -13.412636 -12.906430 -34.080235 -25.115502 98.938654 -11.502589 -0.819984 -30.794377 -10.912517 2.512781 0.611216 -0.715179 -16.116800 17.216520 47.980534 -70.008927 -82.767762 -3.832561 5.452320 12.401486 3.761387 -20.371019 -2.973753 -31.962024 72.858267 -35.286945 6.868277 -11.846550 11.508057 0.015650 0.085387 0.030689 -7.344911 -17.620833 5.951675 86.063801 81.093336 85.725235 1.221570 -21.364260 -18.932306 -0.010010 0.012532 -0.005623
-42.636878 57.901403 12.381252 176.987269 -51.287057 -3.294505 3.689958 21.926128 3.969078 1.869020 12.552473 2.052655 2.425552 15.675750 2.650602 1.855657 12.570965 2.035799 -0.358594 17.067611 2.547098 -1.518537 -4.056135 4.835805 -0.431823 3.901719 1.257456 0.195707 -13.427640 -12.934779 -34.147497 -25.197500 98.953117 -11.527984 -0.902016 -30.733871 -10.933171 2.474370 0.564242 -0.891584 -15.944802 17.177676 48.289087 -70.037367 -83.360929 -4.050756 5.494320 12.046522 3.753143 -20.368574 -2.975552 -31.919438 72.881247 -35.239429 6.841957 -11.939951 11.489911 0.011388 0.127486 0.032313 -7.348352 -17.624109 5.955462 86.088013 81.097678 85.745211 1.223709 -21.363201 -18.930434 -0.013702 0.009884 -0.004545
-42.630282 57.905186 12.379094 176.996541 -51.284220 -3.305451 3.681921 21.932131 3.961633 1.872674 12.549594 2.055077 2.419441 15.686978 2.639672 1.865947 12.558924 2.046209 -0.372237 17.117661 2.514745 -1.490796 -3.994913 4.793988 -0.423128 3.905128 1.255627 0.243148 -13.442151 -12.967409 -34.212196 -25.275136 98.962691 -11.556810 -1.022783 -30.714207 -10.953750 2.452717 0.521758 -1.080954 -15.767703 17.108037 48.667625 -70.083384 -83.990882 -4.272319 5.534639 11.642012 3.740622 -20.366791 -2.969099 -31.898386 72.890796 -35.217735 6.832110 -11.993112 11.478528 0.006626 0.144076 0.032472 -7.352967 -17.627207 5.968724 86.126460 81.107085 85.783126 1.221859 -21.364189 -18.931076 -0.015611 0.005118 -0.001159
-42.624257 57.908914 12.376469 177.006812 -51.279558 -3.314905 3.669960 21.936292 3.949901 1.870120 12.555287 2.051406 2.413770 15.692316 2.631643 1.861588 12.563263 2.039748 -0.362600 17.149519 2.490718 -1.460884 -3.933205 4.746721 -0.379952 3.924855 1.241779 0.286347 -13.500354 -12.976442 -34.296008 -25.359040 98.972774 -11.611294 -1.160618 -30.750875 -10.933379 2.427962 0.524793 -1.283892 -15.593380 16.993689 49.076090 -70.121203 -84.625083 -4.479695 5.553898 11.202275 3.722509 -20.362538 -2.956810 -31.884023 72.891806 -35.210648 6.822190 -12.050589 11.468764 -0.000661 0.183552 0.036764 -7.339992 -17.633995 5.977272 86.121019 81.118995 85.795136 1.217647 -21.362337 -18.932037 -0.015214 0.001631 0.001298
-42.618384 57.913628 12.372633 177.021384 -51.281383 -3.328094 3.654237 21.946191 3.936192 1.869386 12.559809 2.047123 2.382966 15.712314 2.599917 1.862249 12.567737 2.034326 -0.313550 17.142310 2.499736 -1.443391 -3.845701 4.675484 -0.321387 3.932200 1.240459 0.326178 -13.562069 -12.965100 -34.376160 -25.464300 98.979870 -11.682017 -1.329083 -30.836530 -10.913879 2.379018 0.505471 -1.466455 -15.395996 16.903761 49.480634 -70.132237 -85.240950 -4.657081 5.531295 10.739192 3.699575 -20.353604 -2.939506 -31.805946 72.917911 -35.147907 6.779389 -12.097005 11.462651 -0.000317 0.174244 0.033705 -7.339271 -17.631048 5.982904 86.116543 81.124280 85.798382 1.216578 -21.361603 -18.932982 -0.017191 0.000606 -0.000274
-42.612190 57.917882 12.368814 177.031442 -51.279517 -3.341861 3.646102 21.947851 3.933819 1.858898 12.568030 2.035816 2.374978 15.712346 2.587328 1.885807 12.561224 2.048958 -0.317617 17.164140 2.482662 -1.425836 -3.759312 4.596195 -0.314408 3.966318 1.215952 0.370798 -13.629726 -12.944190 -34.459510 -25.566893 98.993432 -11.761592 -1.535228 -30.969622 -10.936850 2.364638 0.463454 -1.635574 -15.206027 16.794580 49.862887 -70.110068 -85.834398 -4.793094 5.463205 10.271345 3.677648 -20.346168 -2.915458 -31.787742 72.916554 -35.144915 6.767277 -12.135508 11.460368 0.027356 0.121492 0.026844 -7.342835 -17.632351 5.996889 86.136638 81.128848 85.817976 1.212891 -21.362100 -18.931225 -0.019886 -0.001686 0.000906
-42.604793 57.922008 12.364861 177.043296 -51.276549 -3.366997 3.641190 21.947217 3.941255 1.848782 12.572507 2.021473 2.372404 15.712942 2.583776 1.877024 12.564480 2.039432 -0.333180 17.235837 2.413110 -1.371229 -3.726354 4.565991 -0.285310 3.992081 1.204754 0.405987 -13.691208 -12.913328 -34.539017 -25.661111 99.033533 -11.839127 -1.774918 -31.131666 -10.929473 2.356362 0.438883 -1.781103 -15.028233 16.672547 50.212379 -70.047357 -86.414420 -4.884327 5.362576 9.818791 3.631030 -20.330085 -2.860409 -31.742092 72.922774 -35.148203 6.722727 -12.266253 11.464889 0.026030 0.183365 0.032268 -7.354843 -17.632719 6.020808 86.169149 81.135785 85.844336 1.235050 -21.358707 -18.926098 -0.043330 -0.002611 -0.007740
-42.600761 57.925852 12.360230 177.056335 -51.273779 -3.376244 3.620751 21.952640 3.919222 1.843502 12.574201 2.012712 2.390007 15.706473 2.597077 1.803134 12.585244 1.979061 -0.282517 17.273667 2.392425 -1.331146 -3.671560 4.513499 -0.216668 4.002301 1.219627 0.465934 -13.763097 -12.871019 -34.622548 -25.716117 99.075772 -11.902879 -2.042381 -31.283322 -10.896260 2.349198 0.412224 -1.872169 -14.864041 16.574281 50.520397 -69.930305 -86.993949 -4.929279 5.231786 9.393373 3.601954 -20.323739 -2.840033 -31.743922 72.929100 -35.175579 6.701001 -12.341072 11.467270 0.026741 0.194441 0.030671 -7.363483 -17.635951 6.024941 86.206904 81.141694 85.879276 1.236794 -21.357727 -18.926677 -0.049941 -0.007341 -0.008570
